# xmcd
#
# Track frame offsets: 
#        182
#        17880
#        38750
#        54907
#
# Disc length: 1071 seconds
#
# Revision: 5
# Processed by: cddbd v1.5.2PL0 Copyright (c) Steve Scherf et al.
# Submitted via: ExactAudioCopy v1.0b6
#
DISCID=27042d04
DTITLE=Technotronic Featuring Reggie - Move That Body
DYEAR=1991
DGENRE=House
TTITLE0=Move That Body (7" Version)
TTITLE1=Move That Body (12" Version)
TTITLE2=Move That Body (12" Instrumental)
TTITLE3=Getting Started (Instrumental)
EXTD=YEAR: 1991
EXTT0=
EXTT1=
EXTT2=
EXTT3=
PLAYORDER=
